<svg width="80" height="17" viewBox="0 0 80 17" fill="none" xmlns="http://www.w3.org/2000/svg">
<path d="M12.4872 12.0692C12.4872 12.8877 12.2956 13.5931 11.9125 14.1852C11.5468 14.7599 10.9372 15.2911 10.0838 15.7788C9.5091 16.1271 8.83858 16.3883 8.07228 16.5625C7.30598 16.7367 6.53097 16.8237 5.74726 16.8237C4.94612 16.8237 3.95342 16.5625 2.76913 16.04C1.91575 15.622 1.23653 15.1257 0.731469 14.551C0.243823 13.9762 2.13625e-07 13.3493 2.13625e-07 12.67C2.13625e-07 12.1998 0.104496 11.8602 0.313487 11.6512C0.522478 11.4248 0.862089 11.3116 1.33232 11.3116C1.57614 11.3116 1.82867 11.4161 2.08991 11.6251C2.35115 11.8167 2.50789 12.0082 2.56014 12.1998C2.80396 12.9139 3.23066 13.4625 3.84021 13.8456C4.44977 14.2113 5.20736 14.3942 6.11299 14.3942C7.15795 14.3942 8.02874 14.2026 8.72538 13.8195C9.43943 13.4363 9.79646 12.9226 9.79646 12.2782C9.79646 11.6512 9.41331 11.0939 8.64701 10.6062C7.88071 10.1186 7.09699 9.77899 6.29586 9.58741C5.14641 9.27393 4.12758 8.89948 3.23936 8.46409C2.31632 8.01127 1.62839 7.45396 1.17558 6.79216C0.722761 6.13035 0.496354 5.43371 0.496354 4.70224C0.496354 4.02302 0.731469 3.33509 1.2017 2.63846C1.67193 1.9244 2.22924 1.41063 2.87363 1.09715C3.22195 0.922988 3.81409 0.74012 4.65005 0.548545C5.50343 0.339554 6.1217 0.235059 6.50485 0.235059C7.00991 0.235059 7.56722 0.296014 8.17678 0.417925C8.78634 0.539837 9.28269 0.713996 9.66584 0.940403C10.4321 1.3758 10.9982 1.76766 11.3639 2.11598C11.7296 2.4643 11.9125 2.89969 11.9125 3.42217C11.9125 3.73566 11.7906 4.01431 11.5468 4.25814C11.3204 4.50196 10.9198 4.62387 10.3451 4.62387C10.2057 4.62387 10.0664 4.56292 9.92708 4.44101C9.78775 4.31909 9.61359 4.13623 9.4046 3.8924C9.12595 3.52667 8.856 3.28285 8.59476 3.16093C8.33352 3.07385 7.95037 2.97807 7.44531 2.87357C6.95766 2.76908 6.52227 2.71683 6.13912 2.71683C5.72113 2.71683 5.28573 2.80391 4.83292 2.97807C4.38011 3.15223 3.99696 3.40476 3.68347 3.73566C3.3874 4.04915 3.23936 4.41488 3.23936 4.83286C3.23936 5.18118 3.39611 5.48596 3.70959 5.7472C4.0405 5.99102 4.43235 6.19131 4.88517 6.34805C5.40765 6.55704 5.97366 6.73991 6.58322 6.89665C7.38435 7.14047 8.03745 7.36688 8.54251 7.57587C9.06499 7.76745 9.57005 8.01127 10.0577 8.30734C10.9111 8.8124 11.5293 9.33488 11.9125 9.87478C12.2956 10.3973 12.4872 11.1287 12.4872 12.0692ZM16.2627 0.0260671C16.8723 0.0783142 17.4035 0.243766 17.8563 0.522421C18.3091 0.78366 18.5355 1.18423 18.5355 1.72412C18.5355 2.12469 18.3439 2.44688 17.9608 2.6907C17.5951 2.91711 17.1509 3.03032 16.6285 3.03032C16.1234 3.03032 15.7751 2.8997 15.5835 2.63846C15.3919 2.37722 15.2962 2.10727 15.2962 1.82862C15.2962 1.30614 15.3484 0.870739 15.4529 0.522421C15.5748 0.174103 15.8448 0.00865143 16.2627 0.0260671ZM18.3526 11.599V12.3565C18.3526 13.0358 18.3701 13.6802 18.4049 14.2897C18.4571 14.8819 18.5181 15.4827 18.5878 16.0923C18.5703 16.2664 18.4397 16.4493 18.1959 16.6409C17.9521 16.815 17.7344 16.9021 17.5428 16.9021C17.2119 16.9021 16.8723 16.8411 16.524 16.7192C16.1931 16.5799 15.9928 16.4145 15.9231 16.2229C15.8186 15.6656 15.7664 15.1692 15.7664 14.7338C15.7664 13.3057 15.7228 11.7034 15.6358 9.92702C15.5661 8.35959 15.5313 7.26239 15.5313 6.63541C15.5313 6.32193 15.688 6.05198 16.0015 5.82557C16.315 5.59916 16.6459 5.48596 16.9942 5.48596C17.4993 5.48596 17.8476 5.59916 18.0392 5.82557C18.2482 6.05198 18.3526 6.40901 18.3526 6.89665V11.599ZM33.527 14.7861C33.614 14.8209 33.7534 14.8644 33.9449 14.9167C34.1365 14.9689 34.2758 15.0212 34.3629 15.0734C34.45 15.1257 34.4935 15.204 34.4935 15.3085C34.511 15.7265 34.3542 16.0748 34.0233 16.3535C33.7098 16.6147 33.3354 16.7454 32.9 16.7454C32.2208 16.7454 31.6896 16.5625 31.3064 16.1968C30.9233 15.831 30.6446 15.2737 30.4705 14.5248C30.4008 14.2288 30.366 13.8195 30.366 13.297C30.366 13.0009 30.3834 12.522 30.4182 11.8602C30.453 11.1636 30.4705 10.6062 30.4705 10.1883C30.4705 9.5787 30.2963 9.04752 29.948 8.5947C29.6171 8.12447 29.1469 7.88936 28.5373 7.88936C28.1716 7.88936 27.7884 8.00256 27.3878 8.22897C26.9873 8.43796 26.7086 8.6992 26.5519 9.01269C26.2906 9.51775 26.1078 10.0664 26.0033 10.6585C25.8117 11.7034 25.7159 12.7919 25.7159 13.924C25.7159 14.4639 25.7246 14.8819 25.742 15.1779C25.742 15.2476 25.742 15.3869 25.742 15.5959C25.7595 15.7875 25.742 15.9704 25.6898 16.1445C25.655 16.3013 25.5853 16.4493 25.4808 16.5886C25.3937 16.6757 25.2544 16.7454 25.0628 16.7976C24.8887 16.8673 24.7232 16.9021 24.5665 16.9021C24.3226 16.9021 24.0179 16.7976 23.6521 16.5886C23.2864 16.3796 23.0774 16.1445 23.0252 15.8833L22.999 15.4392C22.999 15.2824 23.0164 15.0996 23.0513 14.8906C23.2603 13.6714 23.3648 12.6091 23.3648 11.7034C23.3648 11.3029 23.3561 10.9894 23.3386 10.763L23.3125 9.53516C23.3125 9.11718 23.208 8.71662 22.999 8.33347C22.79 7.9329 22.5462 7.73262 22.2676 7.73262C22.1805 7.73262 22.0586 7.76745 21.9018 7.83711C21.7451 7.88936 21.6145 7.91548 21.51 7.91548C21.3358 7.91548 21.1442 7.8284 20.9352 7.65424C20.7437 7.48008 20.6479 7.29722 20.6479 7.10564C20.6479 6.73991 20.7698 6.44384 21.0136 6.21743C21.2749 6.00844 21.5274 5.84299 21.7712 5.72108C22.0324 5.59916 22.3285 5.53821 22.6594 5.53821C22.9381 5.53821 23.1645 5.56433 23.3386 5.61658C23.5128 5.66883 23.7479 5.78203 24.044 5.95619C24.2007 6.04327 24.3836 6.23485 24.5926 6.53092C24.8016 6.82699 24.9757 7.24497 25.1151 7.78486C25.5679 6.9489 26.1252 6.36547 26.787 6.03456C27.4662 5.68624 28.3283 5.51209 29.3733 5.51209C29.7738 5.51209 30.2005 5.6427 30.6533 5.90394C31.1236 6.16518 31.5241 6.46996 31.855 6.81828C32.1685 7.20143 32.4298 7.68037 32.6387 8.25509C32.8477 8.8124 32.9522 9.31747 32.9522 9.77028C32.9522 10.0315 32.9348 10.4582 32.9 11.0504C32.8477 11.5206 32.8216 12.0169 32.8216 12.5394C32.8216 13.7585 33.0567 14.5074 33.527 14.7861ZM46.3128 16.9021C45.7206 16.9021 45.2678 16.815 44.9543 16.6409C44.6408 16.4493 44.3012 16.101 43.9355 15.5959C43.4827 15.9965 42.8035 16.3187 41.8978 16.5625C41.0096 16.8063 40.2433 16.9282 39.5989 16.9282C38.5366 16.9282 37.6745 16.6409 37.0127 16.0661C36.3683 15.474 36.0461 14.6119 36.0461 13.4799C36.0461 12.9922 36.1767 12.5481 36.4379 12.1476C36.7166 11.7296 37.0736 11.3638 37.509 11.0504C37.9967 10.7194 38.5714 10.4582 39.2332 10.2666C39.9124 10.0751 40.5307 9.97927 41.088 9.97927C42.0284 9.97927 42.8644 10.0664 43.5959 10.2405V10.2144C43.5959 9.27393 43.3608 8.62954 42.8905 8.28122C42.4377 7.91548 41.7063 7.73262 40.6961 7.73262C40.0517 7.73262 39.4944 8.01998 39.0242 8.5947C38.85 8.82111 38.4843 8.93431 37.927 8.93431C37.6483 8.93431 37.4393 8.82111 37.3 8.5947C37.1781 8.35088 37.1172 8.10706 37.1172 7.86324C37.1172 7.35817 37.3261 6.92278 37.7441 6.55704C38.1795 6.19131 38.702 5.92136 39.3116 5.7472C39.9211 5.55562 40.4871 5.45984 41.0096 5.45984C41.5147 5.45984 42.1155 5.56433 42.8122 5.77332C43.5088 5.98231 44.0748 6.26097 44.5102 6.60929C45.0327 7.0621 45.4333 7.59329 45.7119 8.20285C46.008 8.79499 46.156 9.44808 46.156 10.1621C46.156 10.3885 46.1386 10.7282 46.1038 11.181C46.0689 11.7034 46.0515 12.1301 46.0515 12.461C46.0515 12.6178 46.0341 12.8181 45.9993 13.0619C45.9644 13.3754 45.947 13.6366 45.947 13.8456C45.947 14.072 46.0167 14.2897 46.156 14.4987C46.2954 14.7077 46.4869 14.8819 46.7307 15.0212C46.9572 15.1431 47.1052 15.2737 47.1749 15.413C47.2445 15.5524 47.2794 15.7091 47.2794 15.8833C47.2794 16.0574 47.1661 16.2751 46.9397 16.5364C46.7307 16.7802 46.5218 16.9021 46.3128 16.9021ZM41.088 11.9124C40.4088 11.9124 39.8079 12.0431 39.2854 12.3043C38.763 12.5655 38.5017 13.0271 38.5017 13.6889C38.5017 14.0198 38.6149 14.2984 38.8413 14.5248C39.0852 14.7512 39.3464 14.8644 39.625 14.8644C40.3739 14.8644 41.0009 14.7861 41.506 14.6293C42.011 14.4726 42.6206 14.1852 43.3346 13.7672C43.4217 13.4886 43.474 13.0967 43.4914 12.5917C43.4914 12.4001 43.5001 12.252 43.5175 12.1476C42.577 11.9908 41.7672 11.9124 41.088 11.9124ZM48.9562 7.99385C48.8168 7.99385 48.6949 7.94161 48.5904 7.83711C48.4859 7.7152 48.4337 7.57587 48.4337 7.41913C48.4337 6.91407 48.5991 6.53092 48.9301 6.26968C49.261 5.99102 49.6702 5.8517 50.1579 5.8517C50.8371 5.8517 51.4205 6.03456 51.9082 6.4003C52.4132 6.74862 52.6658 7.25368 52.6658 7.91548C52.6658 8.08964 52.6309 8.75145 52.5613 9.9009C52.4916 11.2245 52.4568 12.104 52.4568 12.5394C52.4568 13.149 52.57 13.6453 52.7964 14.0285C53.0402 14.3942 53.4147 14.5771 53.9197 14.5771C54.895 14.5771 55.6439 14.0372 56.1664 12.9574C56.7063 11.8602 57.0633 10.5192 57.2375 8.93431C57.3071 8.23768 57.4116 7.50621 57.5509 6.73991C57.6206 6.32193 57.7164 6.01715 57.8383 5.82557C57.9602 5.634 58.1953 5.53821 58.5436 5.53821C58.7701 5.53821 59.0313 5.59046 59.3274 5.69495C59.6408 5.79945 59.8411 5.93877 59.9282 6.11293C60.0327 6.37417 60.085 6.66154 60.085 6.97502C60.085 7.41042 60.024 7.97644 59.9021 8.67308C59.7628 9.36971 59.667 10.1273 59.6147 10.9459C59.5799 11.6773 59.6931 12.4436 59.9543 13.2448C60.2156 14.0459 60.59 14.5684 61.0777 14.8122C61.635 15.0908 61.9136 15.3434 61.9136 15.5698C61.9136 15.9355 61.783 16.2229 61.5218 16.4319C61.2605 16.6409 61.008 16.7454 60.7642 16.7454C60.1198 16.7454 59.5364 16.5102 59.0139 16.04C58.5088 15.5698 58.1431 14.9864 57.9167 14.2897C57.5509 14.847 57.1939 15.3085 56.8456 15.6743C56.5147 16.0226 56.088 16.3187 55.5655 16.5625C55.043 16.7889 54.3987 16.9021 53.6324 16.9021C52.7267 16.9021 51.8995 16.5799 51.1506 15.9355C50.4191 15.2911 50.0534 14.1852 50.0534 12.6178C50.0534 12.1824 50.0621 11.7209 50.0795 11.2332C50.1143 10.7456 50.1318 10.3973 50.1318 10.1883C50.184 9.56129 50.2101 8.98656 50.2101 8.46409C50.2101 8.30734 50.1492 8.17672 50.0273 8.07223C49.9228 7.96773 49.8008 7.91548 49.6615 7.91548C49.557 7.91548 49.4351 7.9329 49.2958 7.96773C49.1739 7.98515 49.0607 7.99385 48.9562 7.99385ZM75.8289 10.5801C75.9334 10.197 76.0466 9.67449 76.1685 9.01269C76.3427 8.22897 76.482 7.63683 76.5865 7.23626C76.691 6.8357 76.8303 6.49608 77.0045 6.21743C77.196 5.90394 77.3615 5.69495 77.5008 5.59046C77.6576 5.48596 77.823 5.43371 77.9972 5.43371C78.9028 5.43371 79.3556 5.78203 79.3556 6.47867C79.3556 6.82699 79.2163 7.48008 78.9376 8.43796C78.0146 11.2245 77.3528 13.3841 76.9522 14.9167C76.7781 15.5611 76.5168 16.0574 76.1685 16.4057C75.8202 16.7367 75.3499 16.9021 74.7578 16.9021C74.4617 16.9021 74.157 16.7628 73.8435 16.4841C73.5474 16.188 73.3036 15.831 73.112 15.413L72.8246 14.7077C72.337 13.4712 71.9713 12.522 71.7274 11.8602C71.501 11.181 71.353 10.5714 71.2833 10.0315L71.0482 10.8675C70.6302 12.3653 70.1948 13.7585 69.742 15.0473C69.5156 15.7091 69.237 16.188 68.9061 16.4841C68.5752 16.7628 68.1485 16.9021 67.626 16.9021C67.3125 16.9021 67.0338 16.8324 66.79 16.6931C66.5636 16.5538 66.3459 16.3187 66.1369 15.9878C65.8583 15.535 65.5883 14.9254 65.3271 14.1591C65.0833 13.3928 64.7262 12.1998 64.256 10.5801C64.0296 9.88348 63.8206 9.15201 63.629 8.38571C63.4375 7.602 63.3417 7.05339 63.3417 6.73991C63.3417 6.37417 63.4375 6.08681 63.629 5.87782C63.8206 5.66883 64.0993 5.56433 64.465 5.56433C64.9352 5.56433 65.2661 5.66012 65.4577 5.8517C65.6493 6.02585 65.8234 6.2958 65.9802 6.66154C66.0673 7.28851 66.2588 8.17672 66.5549 9.32617L67.1296 11.7818C67.1645 11.9734 67.269 12.374 67.4431 12.9835L67.6521 13.7411C68.0353 12.9226 68.3575 12.1388 68.6187 11.39C68.8799 10.6411 69.1673 9.71803 69.4808 8.62083C69.4982 8.55116 69.6724 7.95032 70.0033 6.81828C70.2297 6.45254 70.4299 6.1826 70.6041 6.00844C70.7783 5.81686 70.9524 5.72108 71.1266 5.72108C71.4749 5.72108 71.771 5.83428 72.0148 6.06069C72.276 6.26968 72.4676 6.53092 72.5895 6.8444C72.7985 7.52362 72.9814 8.14189 73.1381 8.6992C73.2078 8.92561 73.3645 9.47421 73.6084 10.345C73.8696 11.1984 74.1047 11.9211 74.3137 12.5133C74.5227 13.1054 74.6969 13.5234 74.8362 13.7672L75.8289 10.5801Z" fill="url(#paint0_linear_101_352)"/>
<defs>
<linearGradient id="paint0_linear_101_352" x1="39.8767" y1="-12.2024" x2="39.8767" y2="26.9834" gradientUnits="userSpaceOnUse">
<stop stop-color="#C7CAFE"/>
<stop offset="1" stop-color="#3D408F"/>
</linearGradient>
</defs>
</svg>
